<?xml version="1.0" standalone="no"?><!DOCTYPE svg PUBLIC "-//W3C//DTD SVG 1.1//EN" "http://www.w3.org/Graphics/SVG/1.1/DTD/svg11.dtd"><svg t="1782448252766" class="icon" viewBox="0 0 1024 1024" version="1.1" xmlns="http://www.w3.org/2000/svg" p-id="9917" xmlns:xlink="http://www.w3.org/1999/xlink" width="200" height="200"><path d="M512 102.4m-102.4 0a25.6 25.6 0 1 0 204.8 0 25.6 25.6 0 1 0-204.8 0Z" fill="#898989" p-id="9918"></path><path d="M512 512m-102.4 0a25.6 25.6 0 1 0 204.8 0 25.6 25.6 0 1 0-204.8 0Z" fill="#898989" p-id="9919"></path><path d="M512 819.2c-56.4 0-102.4 46-102.4 102.4 0 56.4 46 102.4 102.4 102.4 56.4 0 102.4-46 102.4-102.4C614.4 865.2 568.4 819.2 512 819.2z" fill="#898989" p-id="9920"></path></svg>